<mxfile host="app.diagrams.net" modified="2023-07-07T15:11:48.821Z" agent="Mozilla/5.0 (X11; Linux x86_64; rv:109.0) Gecko/20100101 Firefox/115.0" etag="YYiYphPjlRzKKax4mQAX" version="21.6.1" type="github">
  <diagram name="Pagina-1" id="NZHQ40WEDAl2-lRk3Xd9">
    <mxGraphModel dx="880" dy="485" grid="1" gridSize="10" guides="1" tooltips="1" connect="1" arrows="1" fold="1" page="1" pageScale="1" pageWidth="827" pageHeight="1169" math="0" shadow="0">
      <root>
        <mxCell id="0" />
        <mxCell id="1" parent="0" />
        <mxCell id="whm0TcxRXVaVKDxryrUy-4" value="" style="edgeStyle=orthogonalEdgeStyle;rounded=0;orthogonalLoop=1;jettySize=auto;html=1;" edge="1" parent="1" source="whm0TcxRXVaVKDxryrUy-1" target="whm0TcxRXVaVKDxryrUy-3">
          <mxGeometry relative="1" as="geometry" />
        </mxCell>
        <mxCell id="whm0TcxRXVaVKDxryrUy-1" value="wait" style="rounded=0;whiteSpace=wrap;html=1;" vertex="1" parent="1">
          <mxGeometry x="360" y="20" width="120" height="60" as="geometry" />
        </mxCell>
        <mxCell id="whm0TcxRXVaVKDxryrUy-6" value="" style="edgeStyle=orthogonalEdgeStyle;rounded=0;orthogonalLoop=1;jettySize=auto;html=1;" edge="1" parent="1" source="whm0TcxRXVaVKDxryrUy-3" target="whm0TcxRXVaVKDxryrUy-5">
          <mxGeometry relative="1" as="geometry" />
        </mxCell>
        <mxCell id="whm0TcxRXVaVKDxryrUy-10" style="edgeStyle=orthogonalEdgeStyle;rounded=0;orthogonalLoop=1;jettySize=auto;html=1;" edge="1" parent="1" source="whm0TcxRXVaVKDxryrUy-3">
          <mxGeometry relative="1" as="geometry">
            <mxPoint x="500" y="170" as="targetPoint" />
          </mxGeometry>
        </mxCell>
        <mxCell id="whm0TcxRXVaVKDxryrUy-3" value="compute" style="rhombus;whiteSpace=wrap;html=1;" vertex="1" parent="1">
          <mxGeometry x="380" y="130" width="80" height="80" as="geometry" />
        </mxCell>
        <mxCell id="whm0TcxRXVaVKDxryrUy-8" value="" style="edgeStyle=orthogonalEdgeStyle;rounded=0;orthogonalLoop=1;jettySize=auto;html=1;" edge="1" parent="1" source="whm0TcxRXVaVKDxryrUy-5" target="whm0TcxRXVaVKDxryrUy-7">
          <mxGeometry relative="1" as="geometry" />
        </mxCell>
        <mxCell id="whm0TcxRXVaVKDxryrUy-5" value="&lt;div&gt;operand&lt;/div&gt;&lt;div&gt;calculation&lt;br&gt;&lt;/div&gt;" style="rounded=0;whiteSpace=wrap;html=1;" vertex="1" parent="1">
          <mxGeometry x="360" y="250" width="120" height="60" as="geometry" />
        </mxCell>
        <mxCell id="whm0TcxRXVaVKDxryrUy-9" style="edgeStyle=orthogonalEdgeStyle;rounded=0;orthogonalLoop=1;jettySize=auto;html=1;entryX=1;entryY=0.5;entryDx=0;entryDy=0;" edge="1" parent="1" source="whm0TcxRXVaVKDxryrUy-7" target="whm0TcxRXVaVKDxryrUy-1">
          <mxGeometry relative="1" as="geometry">
            <Array as="points">
              <mxPoint x="500" y="390" />
              <mxPoint x="500" y="50" />
            </Array>
          </mxGeometry>
        </mxCell>
        <mxCell id="whm0TcxRXVaVKDxryrUy-7" value="&lt;div&gt;addess&lt;/div&gt;&lt;div&gt;calculation&lt;/div&gt;" style="rounded=0;whiteSpace=wrap;html=1;" vertex="1" parent="1">
          <mxGeometry x="360" y="360" width="120" height="60" as="geometry" />
        </mxCell>
        <mxCell id="whm0TcxRXVaVKDxryrUy-11" value="1" style="text;html=1;strokeColor=none;fillColor=none;align=center;verticalAlign=middle;whiteSpace=wrap;rounded=0;" vertex="1" parent="1">
          <mxGeometry x="380" y="210" width="60" height="30" as="geometry" />
        </mxCell>
        <mxCell id="whm0TcxRXVaVKDxryrUy-12" value="0" style="text;html=1;strokeColor=none;fillColor=none;align=center;verticalAlign=middle;whiteSpace=wrap;rounded=0;" vertex="1" parent="1">
          <mxGeometry x="440" y="140" width="60" height="30" as="geometry" />
        </mxCell>
      </root>
    </mxGraphModel>
  </diagram>
</mxfile>
